<svg xmlns="http://www.w3.org/2000/svg" viewBox="0 0 800 450" width="800" height="450" font-family="Inter, -apple-system, 'Segoe UI', Roboto, sans-serif">
  <defs>
    <linearGradient id="bg" x1="0" y1="0" x2="1" y2="1">
      <stop offset="0" stop-color="#fff7ed"/>
      <stop offset="1" stop-color="#fafafa"/>
    </linearGradient>
    <linearGradient id="brand" x1="0" y1="0" x2="1" y2="1">
      <stop offset="0" stop-color="#fb923c"/>
      <stop offset="1" stop-color="#f05a22"/>
    </linearGradient>
    <filter id="card" x="-20%" y="-20%" width="140%" height="140%">
      <feDropShadow dx="0" dy="6" stdDeviation="10" flood-color="#171717" flood-opacity="0.10"/>
    </filter>
  </defs>

  <rect width="800" height="450" fill="url(#bg)"/>

  <!-- eyebrow + title -->
  <text x="56" y="62" fill="#f05a22" font-size="13" font-weight="700" letter-spacing="2">WELCOME TO</text>
  <text x="55" y="98" fill="#171717" font-size="34" font-weight="700" letter-spacing="-0.5">cube-playground</text>
  <text x="56" y="124" fill="#737373" font-size="14" font-weight="500">Your analytics workspace — ask, explore, and build cohorts.</text>

  <!-- ===== Card 1 · Chat agent (natural language) ===== -->
  <g filter="url(#card)" transform="translate(56 158)">
    <rect width="216" height="232" rx="16" fill="#ffffff" stroke="#e5e5e5"/>
    <circle cx="34" cy="40" r="16" fill="#fff7ed"/>
    <path d="M27 40a7 7 0 0 1 14 0 7 7 0 0 1-7 7l-4 3v-3a7 7 0 0 1-3-7z" fill="#f05a22"/>
    <text x="62" y="38" fill="#171717" font-size="14" font-weight="700">Chat agent</text>
    <text x="62" y="56" fill="#737373" font-size="11.5" font-weight="500">Ask in plain English</text>
    <!-- chat bubbles -->
    <rect x="24" y="80" width="120" height="26" rx="13" fill="#f5f5f5"/>
    <text x="36" y="97" fill="#404040" font-size="10.5">DAU last 7 days?</text>
    <rect x="62" y="116" width="130" height="44" rx="13" fill="#fff7ed" stroke="#fed7aa"/>
    <text x="74" y="134" fill="#171717" font-size="10.5" font-weight="600">▲ 4.1M, +6% WoW</text>
    <text x="74" y="150" fill="#737373" font-size="9.5">peak Mon–Tue 12–14h</text>
    <!-- sparkle -->
    <path d="M168 86l3 7 7 3-7 3-3 7-3-7-7-3 7-3z" fill="#f05a22"/>
    <!-- input -->
    <rect x="24" y="186" width="168" height="28" rx="14" fill="#ffffff" stroke="#e5e5e5"/>
    <text x="38" y="204" fill="#a3a3a3" font-size="10.5">Ask anything…</text>
    <circle cx="178" cy="200" r="11" fill="url(#brand)"/>
    <path d="M174 200h8m-3-3l3 3-3 3" stroke="#fff" stroke-width="1.6" fill="none" stroke-linecap="round" stroke-linejoin="round"/>
  </g>

  <!-- ===== Card 2 · Query exploration (playground) ===== -->
  <g filter="url(#card)" transform="translate(292 158)">
    <rect width="216" height="232" rx="16" fill="#ffffff" stroke="#e5e5e5"/>
    <rect x="20" y="24" width="16" height="16" rx="4" fill="#dbeafe"/>
    <rect x="24" y="28" width="8" height="8" rx="2" fill="#1d4ed8"/>
    <text x="46" y="32" fill="#171717" font-size="14" font-weight="700">Query explorer</text>
    <text x="46" y="50" fill="#737373" font-size="11.5" font-weight="500">Build &amp; visualize</text>
    <!-- chips -->
    <rect x="20" y="66" width="58" height="20" rx="10" fill="#fff7ed"/><text x="31" y="80" fill="#f05a22" font-size="10" font-weight="600">measure</text>
    <rect x="84" y="66" width="58" height="20" rx="10" fill="#f5f5f5"/><text x="95" y="80" fill="#525252" font-size="10" font-weight="600">game_id</text>
    <rect x="148" y="66" width="48" height="20" rx="10" fill="#f5f5f5"/><text x="158" y="80" fill="#525252" font-size="10" font-weight="600">7d</text>
    <!-- bar chart -->
    <line x1="24" y1="190" x2="196" y2="190" stroke="#e5e5e5" stroke-width="1.5"/>
    <rect x="34"  y="150" width="20" height="40" rx="3" fill="#fdba74"/>
    <rect x="62"  y="128" width="20" height="62" rx="3" fill="#fb923c"/>
    <rect x="90"  y="138" width="20" height="52" rx="3" fill="#f05a22"/>
    <rect x="118" y="110" width="20" height="80" rx="3" fill="#f05a22"/>
    <rect x="146" y="132" width="20" height="58" rx="3" fill="#fb923c"/>
    <polyline points="44,150 72,128 100,138 128,110 156,132" fill="none" stroke="#1d4ed8" stroke-width="2.5" stroke-linecap="round" stroke-linejoin="round"/>
    <text x="24" y="214" fill="#a3a3a3" font-size="10">Trino · live results in seconds</text>
  </g>

  <!-- ===== Card 3 · Segment builder ===== -->
  <g filter="url(#card)" transform="translate(528 158)">
    <rect width="216" height="232" rx="16" fill="#ffffff" stroke="#e5e5e5"/>
    <rect x="20" y="24" width="16" height="16" rx="4" fill="#d1fae5"/>
    <path d="M24 32h8M24 32l3 3 5-6" stroke="#047857" stroke-width="1.6" fill="none" stroke-linecap="round" stroke-linejoin="round"/>
    <text x="46" y="32" fill="#171717" font-size="14" font-weight="700">Segment builder</text>
    <text x="46" y="50" fill="#737373" font-size="11.5" font-weight="500">Cohorts from rules</text>
    <!-- rule rows -->
    <rect x="20" y="64" width="176" height="24" rx="6" fill="#f5f5f5"/>
    <text x="30" y="80" fill="#404040" font-size="10">recharge_30d &gt; 0</text>
    <text x="170" y="80" fill="#f05a22" font-size="10" font-weight="700">AND</text>
    <rect x="20" y="92" width="176" height="24" rx="6" fill="#f5f5f5"/>
    <text x="30" y="108" fill="#404040" font-size="10">last_active ≤ 7d</text>
    <!-- funnel -->
    <path d="M44 132 h128 l-26 30 v26 l-76 0 v-26 z" fill="#fff7ed" stroke="#fed7aa"/>
    <path d="M44 132 h128 l-20 23 h-88 z" fill="url(#brand)" opacity="0.85"/>
    <text x="108" y="150" fill="#ffffff" font-size="11" font-weight="700" text-anchor="middle">High-value</text>
    <text x="108" y="178" fill="#171717" font-size="13" font-weight="700" text-anchor="middle">48,200</text>
    <text x="108" y="194" fill="#737373" font-size="9.5" text-anchor="middle" >members · refreshed nightly</text>
  </g>
</svg>
