<svg xmlns="http://www.w3.org/2000/svg" viewBox="0 0 840 360" width="840" height="360" font-family="Inter, -apple-system, 'Segoe UI', Roboto, sans-serif">
  <defs>
    <linearGradient id="bg" x1="0" y1="0" x2="1" y2="1">
      <stop offset="0" stop-color="#fff7ed"/><stop offset="1" stop-color="#fafafa"/>
    </linearGradient>
    <linearGradient id="brand" x1="0" y1="0" x2="1" y2="1">
      <stop offset="0" stop-color="#fb923c"/><stop offset="1" stop-color="#f05a22"/>
    </linearGradient>
    <filter id="card" x="-20%" y="-20%" width="140%" height="140%">
      <feDropShadow dx="0" dy="4" stdDeviation="9" flood-color="#171717" flood-opacity="0.10"/>
    </filter>
  </defs>
  <rect width="840" height="360" fill="url(#bg)"/>

  <text x="48" y="44" fill="#f05a22" font-size="12" font-weight="700" letter-spacing="2">WELCOME TO</text>
  <text x="47" y="74" fill="#171717" font-size="28" font-weight="700" letter-spacing="-0.5">cube-playground</text>
  <text x="48" y="95" fill="#737373" font-size="12.5" font-weight="500">Your analytics workspace — ask, explore, and build cohorts.</text>

  <!-- Card 1 · Chat agent -->
  <g filter="url(#card)" transform="translate(48 112)">
    <rect width="237" height="220" rx="14" fill="#ffffff" stroke="#e5e5e5"/>
    <circle cx="34" cy="34" r="15" fill="#fff7ed"/>
    <path d="M27 34a7 7 0 0 1 14 0 7 7 0 0 1-7 7l-4 3v-3a7 7 0 0 1-3-7z" fill="#f05a22"/>
    <text x="60" y="32" fill="#171717" font-size="13.5" font-weight="700">Chat agent</text>
    <text x="60" y="49" fill="#737373" font-size="11">Ask in plain English</text>
    <rect x="22" y="72" width="120" height="24" rx="12" fill="#f5f5f5"/>
    <text x="34" y="88" fill="#404040" font-size="10.5">DAU last 7 days?</text>
    <rect x="62" y="106" width="153" height="40" rx="12" fill="#fff7ed" stroke="#fed7aa"/>
    <text x="74" y="123" fill="#171717" font-size="10.5" font-weight="600">▲ 4.1M, +6% WoW</text>
    <text x="74" y="138" fill="#737373" font-size="9.5">peak Mon–Tue 12–14h</text>
    <rect x="22" y="166" width="193" height="28" rx="14" fill="#ffffff" stroke="#e5e5e5"/>
    <text x="36" y="184" fill="#a3a3a3" font-size="10.5">Ask anything…</text>
    <circle cx="200" cy="180" r="11" fill="url(#brand)"/>
    <path d="M196 180h8m-3-3l3 3-3 3" stroke="#fff" stroke-width="1.6" fill="none" stroke-linecap="round" stroke-linejoin="round"/>
  </g>

  <!-- Card 2 · Query explorer -->
  <g filter="url(#card)" transform="translate(301 112)">
    <rect width="237" height="220" rx="14" fill="#ffffff" stroke="#e5e5e5"/>
    <rect x="22" y="22" width="16" height="16" rx="4" fill="#dbeafe"/>
    <rect x="26" y="26" width="8" height="8" rx="2" fill="#1d4ed8"/>
    <text x="48" y="30" fill="#171717" font-size="13.5" font-weight="700">Query explorer</text>
    <text x="48" y="47" fill="#737373" font-size="11">Build &amp; visualize</text>
    <rect x="22" y="62" width="58" height="20" rx="10" fill="#fff7ed"/><text x="33" y="76" fill="#f05a22" font-size="10" font-weight="600">measure</text>
    <rect x="86" y="62" width="58" height="20" rx="10" fill="#f5f5f5"/><text x="97" y="76" fill="#525252" font-size="10" font-weight="600">game_id</text>
    <rect x="150" y="62" width="42" height="20" rx="10" fill="#f5f5f5"/><text x="160" y="76" fill="#525252" font-size="10" font-weight="600">7d</text>
    <line x1="24" y1="180" x2="215" y2="180" stroke="#e5e5e5" stroke-width="1.5"/>
    <rect x="34"  y="142" width="22" height="38" rx="3" fill="#fdba74"/>
    <rect x="66"  y="120" width="22" height="60" rx="3" fill="#fb923c"/>
    <rect x="98"  y="130" width="22" height="50" rx="3" fill="#f05a22"/>
    <rect x="130" y="104" width="22" height="76" rx="3" fill="#f05a22"/>
    <rect x="162" y="126" width="22" height="54" rx="3" fill="#fb923c"/>
    <polyline points="45,142 77,120 109,130 141,104 173,126" fill="none" stroke="#1d4ed8" stroke-width="2.5" stroke-linecap="round" stroke-linejoin="round"/>
    <text x="24" y="202" fill="#a3a3a3" font-size="10">Trino · live results in seconds</text>
  </g>

  <!-- Card 3 · Segment builder -->
  <g filter="url(#card)" transform="translate(554 112)">
    <rect width="237" height="220" rx="14" fill="#ffffff" stroke="#e5e5e5"/>
    <rect x="22" y="22" width="16" height="16" rx="4" fill="#d1fae5"/>
    <path d="M26 30h8M26 30l3 3 5-6" stroke="#047857" stroke-width="1.6" fill="none" stroke-linecap="round" stroke-linejoin="round"/>
    <text x="48" y="30" fill="#171717" font-size="13.5" font-weight="700">Segment builder</text>
    <text x="48" y="47" fill="#737373" font-size="11">Cohorts from rules</text>
    <rect x="22" y="60" width="193" height="22" rx="6" fill="#f5f5f5"/>
    <text x="32" y="75" fill="#404040" font-size="10">recharge_30d &gt; 0</text>
    <text x="188" y="75" fill="#f05a22" font-size="10" font-weight="700">AND</text>
    <rect x="22" y="86" width="193" height="22" rx="6" fill="#f5f5f5"/>
    <text x="32" y="101" fill="#404040" font-size="10">last_active ≤ 7d</text>
    <path d="M46 124 h145 l-30 30 v24 l-85 0 v-24 z" fill="#fff7ed" stroke="#fed7aa"/>
    <path d="M46 124 h145 l-22 22 h-101 z" fill="url(#brand)" opacity="0.9"/>
    <text x="118" y="141" fill="#ffffff" font-size="11" font-weight="700" text-anchor="middle">High-value</text>
    <text x="118" y="170" fill="#171717" font-size="13" font-weight="700" text-anchor="middle">48,200</text>
    <text x="118" y="186" fill="#737373" font-size="9.5" text-anchor="middle">members · refreshed nightly</text>
  </g>
</svg>
